<svg width="12" height="13" viewBox="0 0 12 13" fill="none" xmlns="http://www.w3.org/2000/svg">
<path d="M6 0.6875C9.1875 0.6875 11.8125 3.3125 11.8125 6.5C11.8125 9.71094 9.1875 12.3125 6 12.3125C2.78906 12.3125 0.1875 9.71094 0.1875 6.5C0.1875 3.3125 2.78906 0.6875 6 0.6875ZM6 11.1875C8.57812 11.1875 10.6875 9.10156 10.6875 6.5C10.6875 3.92188 8.57812 1.8125 6 1.8125C3.39844 1.8125 1.3125 3.92188 1.3125 6.5C1.3125 9.10156 3.39844 11.1875 6 11.1875ZM8.50781 8.82031C8.27344 9.05469 7.42969 9.80469 6.07031 9.80469C4.125 9.80469 2.76562 8.35156 2.76562 6.47656C2.76562 4.625 4.19531 3.21875 6.04688 3.21875C7.35938 3.21875 8.13281 3.82812 8.34375 4.03906C8.39062 4.08594 8.4375 4.15625 8.4375 4.22656C8.4375 4.29688 8.41406 4.34375 8.39062 4.39062L7.94531 5.04688C7.875 5.1875 7.66406 5.21094 7.54688 5.11719C7.33594 4.95312 6.79688 4.57812 6.09375 4.57812C4.96875 4.57812 4.26562 5.42188 4.26562 6.47656C4.26562 7.4375 4.89844 8.42188 6.11719 8.42188C6.86719 8.42188 7.42969 7.97656 7.64062 7.78906C7.78125 7.67188 7.96875 7.69531 8.0625 7.83594L8.53125 8.46875C8.55469 8.51562 8.57812 8.5625 8.57812 8.63281C8.57812 8.70312 8.55469 8.77344 8.50781 8.82031Z" fill="white"/>
</svg>
